<svg width="137" height="134" viewBox="0 0 137 134" fill="none" xmlns="http://www.w3.org/2000/svg">
<path fill-rule="evenodd" clip-rule="evenodd" d="M136.638 61.007C131.582 59.0643 127.373 56.6236 122.417 54.3073C109.864 48.4295 90.139 41.68 76.7396 37.5955C58.0602 31.9169 37.4381 26.9108 17.7874 23.9221L11.1375 22.9508C10.9134 22.901 10.1662 22.6021 10.0168 22.5523L9.36921 22.1787C7.42655 22.3531 5.70805 23.0504 3.76539 23.1999L2.22122 36.9977C4.38803 38.0189 10.4651 38.5668 10.4651 44.1457C10.4651 48.8031 5.85748 50.2975 1.20008 50.2975C0.627244 52.8379 0.228749 57.3707 0.0295022 60.484C-0.219557 64.5436 0.975926 61.6296 8.74656 62.7006L29.792 64.6433C55.5198 67.5572 105.904 78.9392 126.352 95.3273C127.847 96.5228 131.682 100.01 133.052 100.383C133.052 94.1816 136.638 71.6916 136.638 61.007Z" fill="#D9241B"/>
<path fill-rule="evenodd" clip-rule="evenodd" d="M9.37118 22.1779L10.0187 22.5515C10.1682 22.6013 10.9153 22.9002 11.1395 22.95L17.7894 23.9213C37.4401 26.9101 58.0622 31.9161 76.7416 37.5947C90.141 41.6792 109.866 48.4287 122.419 54.3065C127.375 56.6228 131.584 59.0636 136.64 61.0062C140.351 54.8296 114.2 40.3343 111.61 39.0392C106.205 36.3494 101.075 33.9335 95.421 31.1939C83.6405 25.4904 54.4508 14.8058 43.4424 11.1197C37.8635 9.27668 11.538 0.684149 5.80964 0.210938C5.80964 3.67286 5.31152 5.91439 5.31152 9.92424C15.3984 12.2654 15.1493 18.4421 9.37118 22.1779Z" fill="#91110A"/>
<path fill-rule="evenodd" clip-rule="evenodd" d="M9.89956 72.0911C16.6989 74.233 29.6748 75.4035 37.1964 76.6737C45.5648 78.0934 55.303 80.6836 63.1234 82.9749C71.8903 85.5153 103.919 96.1003 108.004 102.426C109.797 103.921 115.077 107.258 116.024 110.82C117.966 118.142 106.061 125.24 101.105 128.179C95.5509 131.467 94.729 131.118 90.7939 133.21L90.1463 133.584C92.8113 133.534 99.1374 131.367 101.454 130.595C105.09 129.375 108.278 128.079 111.765 126.585C170.468 101.455 73.6088 76.7485 56.7974 73.4111C48.2048 71.7175 41.3059 70.3227 32.0409 69.0525L15.5532 67.6578C9.67541 67.2842 9.89956 65.3665 9.89956 72.0911Z" fill="#BBBEC0"/>
<path fill-rule="evenodd" clip-rule="evenodd" d="M107.998 102.425C103.914 96.0991 71.8849 85.5141 63.1181 82.9737C55.2976 80.6824 45.5594 78.0922 37.191 76.6725C29.6695 75.4023 16.6935 74.2318 9.89419 72.0898C9.84438 74.8046 8.94776 78.7895 8.87305 81.4545C40.7028 84.1194 67.0283 85.5141 97.5131 97.5935C100.875 98.9384 105.109 101.728 107.998 102.425Z" fill="#F1F1F1"/>
</svg>