<svg width="34" height="35" viewBox="0 0 34 35" fill="none" xmlns="http://www.w3.org/2000/svg">
<path d="M10.2347 34.6505C9.36735 34.6505 8.6301 34.3469 8.02296 33.7398C7.41582 33.1327 7.11224 32.3954 7.11224 31.5281C7.11224 30.6607 7.41582 29.9235 8.02296 29.3163C8.6301 28.7092 9.36735 28.4056 10.2347 28.4056C11.102 28.4056 11.8393 28.7092 12.4464 29.3163C13.0536 29.9235 13.3571 30.6607 13.3571 31.5281C13.3571 32.3954 13.0536 33.1327 12.4464 33.7398C11.8393 34.3469 11.102 34.6505 10.2347 34.6505ZM27.5816 34.6505C26.7143 34.6505 25.977 34.3469 25.3699 33.7398C24.7628 33.1327 24.4592 32.3954 24.4592 31.5281C24.4592 30.6607 24.7628 29.9235 25.3699 29.3163C25.977 28.7092 26.7143 28.4056 27.5816 28.4056C28.449 28.4056 29.1862 28.7092 29.7934 29.3163C30.4005 29.9235 30.7041 30.6607 30.7041 31.5281C30.7041 32.3954 30.4005 33.1327 29.7934 33.7398C29.1862 34.3469 28.449 34.6505 27.5816 34.6505ZM7.97959 6.02806L12.75 15.9158H25.2398L30.6607 6.02806H7.97959ZM6.67857 3.42602H32.2219C32.8869 3.42602 33.3929 3.72959 33.7398 4.33673C34.0867 4.94388 34.0867 5.55102 33.7398 6.15816L27.8852 16.6964C27.5672 17.2457 27.1552 17.6866 26.6492 18.0191C26.1433 18.3516 25.5867 18.5179 24.9796 18.5179H11.8393L9.41071 23.0281H30.7041V25.6301H9.80102C8.58673 25.6301 7.71216 25.2253 7.1773 24.4158C6.64243 23.6063 6.64966 22.6956 7.19898 21.6837L9.97449 16.5663L3.38265 2.60204H0V0H5.07398L6.67857 3.42602ZM12.75 15.9158H25.2398H12.75Z"/>
</svg>
