<svg width="13" height="9" viewBox="0 0 13 9" fill="none" xmlns="http://www.w3.org/2000/svg">
<path d="M12.069 0.000563046C11.8362 0.00792829 11.6154 0.106185 11.4535 0.274335C9.26046 2.48002 7.06575 4.67486 4.87029 6.88095L1.47031 4.03759C1.28761 3.8848 1.05197 3.81115 0.815072 3.83293C0.578184 3.85455 0.359708 3.96989 0.207481 4.15324C0.0553855 4.33675 -0.0178495 4.57324 0.00369744 4.81098C0.025403 5.04871 0.140334 5.26796 0.323035 5.42057L4.35259 8.79047C4.52467 8.93496 4.74454 9.00939 4.96861 8.99905C5.1927 8.98855 5.40475 8.89421 5.56293 8.73436C7.94944 6.33419 10.3372 3.9483 12.7266 1.54524C12.9016 1.37552 13.0003 1.14158 13 0.897258C12.9997 0.652948 12.9002 0.419293 12.7245 0.250196C12.5489 0.0811072 12.3122 -0.00900135 12.0689 0.000711186L12.069 0.000563046Z"/>
</svg>
