<svg width="17" height="17" viewBox="0 0 17 17" fill="none" xmlns="http://www.w3.org/2000/svg">
  <path
    d="M0.765645 0.765584C1.05866 0.472661 1.45601 0.308105 1.87033 0.308105C2.28465 0.308105 2.68201 0.472661 2.97502 0.765584L8.50002 6.29058L14.025 0.765584C14.3197 0.480962 14.7144 0.323471 15.1241 0.327031C15.5338 0.330591 15.9257 0.494918 16.2154 0.784618C16.5051 1.07432 16.6694 1.46621 16.6729 1.87589C16.6765 2.28558 16.519 2.68027 16.2344 2.97496L10.7094 8.49996L16.2344 14.025C16.519 14.3196 16.6765 14.7143 16.6729 15.124C16.6694 15.5337 16.5051 15.9256 16.2154 16.2153C15.9257 16.505 15.5338 16.6693 15.1241 16.6729C14.7144 16.6764 14.3197 16.519 14.025 16.2343L8.50002 10.7093L2.97502 16.2343C2.68033 16.519 2.28564 16.6764 1.87596 16.6729C1.46627 16.6693 1.07438 16.505 0.784679 16.2153C0.494979 15.9256 0.330652 15.5337 0.327092 15.124C0.323532 14.7143 0.481023 14.3196 0.765645 14.025L6.29064 8.49996L0.765645 2.97496C0.472722 2.68195 0.308167 2.28459 0.308167 1.87027C0.308167 1.45595 0.472722 1.0586 0.765645 0.765584V0.765584Z" />
</svg>