<svg width="36" height="30" viewBox="0 0 36 30" fill="none" xmlns="http://www.w3.org/2000/svg">
<path d="M2.6356e-07 26.5851L2.26352e-06 3.70822C2.33328e-06 2.91019 0.295569 2.20822 0.886702 1.60231C1.47784 0.9964 2.18719 0.693446 3.01478 0.693446L32.9852 0.693449C33.7833 0.693449 34.4852 0.996403 35.0911 1.60231C35.697 2.20823 36 2.9102 36 3.70823L36 26.5851C36 27.4127 35.697 28.122 35.0911 28.7132C34.4852 29.3043 33.7833 29.5999 32.9852 29.5999L3.01477 29.5999C2.18719 29.5999 1.47783 29.3043 0.8867 28.7132C0.295567 28.122 1.9121e-07 27.4127 2.6356e-07 26.5851ZM32.9852 21.8412L3.01478 21.8412L3.01477 26.5851L32.9852 26.5851L32.9852 21.8412ZM32.9852 16.122L32.9852 3.70822L3.01478 3.70822L3.01478 16.122L32.9852 16.122ZM32.9852 3.70822L32.9852 26.5851L32.9852 3.70822Z" />
</svg>
