<svg width="36" height="30" viewBox="0 0 36 30" fill="none" xmlns="http://www.w3.org/2000/svg">
<path d="M36 3.70838V26.5852C36 27.3833 35.7044 28.0852 35.1133 28.6911C34.5222 29.2971 33.8128 29.6 32.9852 29.6H3.01478C2.21675 29.6 1.51478 29.2971 0.908867 28.6911C0.302956 28.0852 0 27.3833 0 26.5852V3.70838C0 2.8808 0.302956 2.17144 0.908867 1.5803C1.51478 0.98917 2.21675 0.693604 3.01478 0.693604H32.9852C33.8128 0.693604 34.5222 0.98917 35.1133 1.5803C35.7044 2.17144 36 2.8808 36 3.70838ZM3.01478 8.45223H32.9852V3.70838H3.01478V8.45223ZM3.01478 14.1714V26.5852H32.9852V14.1714H3.01478ZM3.01478 26.5852V3.70838V26.5852Z" />
</svg>
