<svg width="210" height="154" viewBox="0 0 210 154" fill="none" xmlns="http://www.w3.org/2000/svg">
<path d="M15.8059 141.071C20.5242 149.645 30.5382 153.325 30.5382 153.325C30.5382 153.325 32.9023 143.105 28.184 134.531C23.4656 125.957 13.4516 122.277 13.4516 122.277C13.4516 122.277 11.0876 132.497 15.8059 141.071Z" fill="#F1F1F1"/>
<path d="M19.0491 138.25C27.5676 143.272 30.8484 153.246 30.8484 153.246C30.8484 153.246 20.3179 155.079 11.7993 150.057C3.28076 145.036 0 135.061 0 135.061C0 135.061 10.5305 133.229 19.0491 138.25Z" fill="#911F19"/>
<path d="M137.454 137.145H47.5605V136.511H136.807V105.778H55.1177L51.1493 97.6778L51.7324 97.4037L55.5247 105.145H137.454V137.145Z" fill="#F1F1F1"/>
<path d="M59.523 152.67C63.2733 152.67 66.3135 149.691 66.3135 146.016C66.3135 142.342 63.2733 139.363 59.523 139.363C55.7727 139.363 52.7324 142.342 52.7324 146.016C52.7324 149.691 55.7727 152.67 59.523 152.67Z" fill="#F1F1F1"/>
<path d="M126.459 152.67C130.209 152.67 133.249 149.691 133.249 146.016C133.249 142.342 130.209 139.363 126.459 139.363C122.708 139.363 119.668 142.342 119.668 146.016C119.668 149.691 122.708 152.67 126.459 152.67Z" fill="#F1F1F1"/>
<path d="M205.358 8.82744C207.68 8.82744 209.562 6.98339 209.562 4.70862C209.562 2.43385 207.68 0.589783 205.358 0.589783C203.036 0.589783 201.154 2.43385 201.154 4.70862C201.154 6.98339 203.036 8.82744 205.358 8.82744Z" fill="#F1F1F1"/>
<path d="M147.067 95.323H46.026L24.1631 25.3029H169.582L169.45 25.7149L147.067 95.323ZM46.5044 94.6893H146.593L168.701 25.9366H25.0372L46.5044 94.6893Z" fill="#F1F1F1"/>
<path d="M171.396 19.0475L170.771 18.8849L175.038 3.12451H199.862V3.75836H175.536L171.396 19.0475Z" fill="#F1F1F1"/>
<path d="M162.316 46.5307H31.2285V47.1644H162.316V46.5307Z" fill="#F1F1F1"/>
<path d="M154.809 69.876H38.5176V70.5097H154.809V69.876Z" fill="#F1F1F1"/>
<path d="M97.1946 25.6196H96.5479V95.0061H97.1946V25.6196Z" fill="#F1F1F1"/>
<path d="M126.148 25.5995L121.506 94.9843L122.151 95.0257L126.794 25.641L126.148 25.5995Z" fill="#F1F1F1"/>
<path d="M67.6074 25.5989L66.9619 25.6401L71.5773 95.0265L72.2228 94.9853L67.6074 25.5989Z" fill="#F1F1F1"/>
</svg>
