<svg width="65" height="65" viewBox="0 0 65 65" fill="none" xmlns="http://www.w3.org/2000/svg">
<path d="M32.5 65C50.386 65 65 50.3872 65 32.5C65 14.614 50.3872 0 32.5 0C14.4966 0 0 14.6128 0 32.5C0 50.3872 14.6128 65 32.5 65ZM17.1852 20.2261C16.3667 19.4076 16.3667 18.0051 17.1852 17.0693C18.0037 16.2508 19.4062 16.2508 20.3419 17.0693L32.5 29.3446L44.7753 17.0693C45.5938 16.2508 46.9962 16.2508 47.932 17.0693C48.7505 17.8878 48.7505 19.2903 47.932 20.2261L35.656 32.3841L47.9312 44.6594C48.7497 45.4779 48.7497 46.8803 47.9312 47.8161C47.4637 48.2836 46.9962 48.4009 46.4115 48.4009C45.8267 48.4009 45.2427 48.1671 44.8917 47.8161L32.5 35.5401L20.2247 47.8153C19.7572 48.2828 19.2897 48.4001 18.705 48.4001C18.1202 48.4001 17.5362 48.1663 17.1852 47.8153C16.3667 46.9968 16.3667 45.5944 17.1852 44.6586L29.4605 32.3834L17.1852 20.2261Z" fill="#E54F49"/>
</svg>
