<svg width="38" height="37" viewBox="0 0 38 37" fill="none" xmlns="http://www.w3.org/2000/svg">
<path d="M0 36.2727L8.19954 13.2985L23.0557 28.0109L0 36.2727ZM21.0278 20.1466L19.529 18.6444L30.1091 8.04097C31.0495 7.09844 32.2398 6.61981 33.6798 6.60508C35.1199 6.59036 36.3101 7.05426 37.2506 7.99679L38 8.74787L36.5012 10.25L35.6636 9.41059C35.1052 8.85096 34.4586 8.56378 33.7239 8.54905C32.9892 8.53433 32.3279 8.8215 31.7401 9.41059L21.0278 20.1466ZM14.0186 13.2985L12.5197 11.7964L13.8422 10.4709C14.5182 9.79349 14.8341 9.02032 14.79 8.15142C14.7459 7.28253 14.43 6.55354 13.8422 5.96446L12.6079 4.72738L14.1067 3.22522L15.2529 4.37393C16.2815 5.40483 16.7885 6.69345 16.7738 8.23979C16.7591 9.78613 16.2374 11.0747 15.2088 12.1056L14.0186 13.2985ZM17.5893 16.7005L16.0905 15.1983L22.7912 8.48278C23.3496 7.92315 23.6214 7.20889 23.6067 6.34C23.592 5.4711 23.3055 4.75684 22.7471 4.19721L20.058 1.50216L21.5568 0L24.3341 2.78341C25.2452 3.72594 25.7154 4.91147 25.7448 6.34C25.7742 7.76852 25.3186 8.95405 24.3782 9.89658L17.5893 16.7005ZM24.5545 23.7253L23.0557 22.2231L25.1276 20.1466C26.1562 19.1157 27.3906 18.5855 28.8306 18.5561C30.2707 18.5266 31.505 19.0273 32.5336 20.0582L34.7819 22.3115L33.2831 23.8136L30.9907 21.5162C30.3148 20.8388 29.6094 20.5001 28.8747 20.5001C28.14 20.5001 27.4346 20.8388 26.7587 21.5162L24.5545 23.7253Z"/>
</svg>
