<svg width="34" height="17" viewBox="0 0 34 17" fill="none" xmlns="http://www.w3.org/2000/svg">
<path d="M17.0039 17C13.8006 16.9736 10.6434 16.238 7.76066 14.8467C4.87802 13.4557 2.34247 11.4434 0.337914 8.95623L0 8.49657L0.337914 8.03671C2.3432 5.55085 4.8788 3.53995 7.76115 2.1501C10.6438 0.759952 13.8006 0.0257201 17.0034 0C20.2052 0.026628 23.361 0.761451 26.2418 2.15159C29.1229 3.54154 31.6575 5.55168 33.6621 8.03676L34 8.49662L33.6621 8.95647V8.95628C31.6583 11.4427 29.1238 13.4542 26.2427 14.8453C23.3615 16.2364 20.2057 16.9723 17.0034 16.9999L17.0039 17ZM1.97916 8.49641C3.35816 10.1162 8.64661 15.4418 17.0039 15.4418C25.3607 15.4418 30.6288 10.1228 32.0286 8.50318C30.6221 6.8626 25.3612 1.5573 17.0039 1.5573C8.6471 1.5573 3.379 6.86231 1.97916 8.49593V8.49641Z" fill="#7B7B7B"/>
<path d="M17.0049 12.8823C15.8371 12.8895 14.7142 12.4343 13.8837 11.6168C13.0534 10.7992 12.5837 9.68671 12.5782 8.52432C12.5727 7.36175 13.0318 6.2449 13.8545 5.41959C14.677 4.59432 15.7955 4.1286 16.9635 4.12502C18.1313 4.12125 19.2528 4.57997 20.0806 5.40015C20.9084 6.22015 21.3746 7.33419 21.3765 8.49677C21.3765 9.65388 20.917 10.7641 20.0981 11.5856C19.2794 12.4071 18.1676 12.8732 17.0049 12.8823ZM17.0049 5.67582C16.2514 5.67582 15.5289 5.97383 14.9962 6.50413C14.4634 7.03444 14.164 7.75359 14.164 8.50349C14.164 9.25343 14.4634 9.97258 14.9962 10.5028C15.529 11.0331 16.2515 11.3311 17.0049 11.3311C17.7583 11.3311 18.481 11.0331 19.0136 10.5028C19.5463 9.97253 19.8457 9.25338 19.8457 8.50349C19.8457 7.75354 19.5463 7.03439 19.0136 6.50413C18.481 5.97383 17.7583 5.67582 17.0049 5.67582Z" fill="#7B7B7B"/>
</svg>
