<svg width="3" height="2" viewBox="0 0 3 2" fill="none" xmlns="http://www.w3.org/2000/svg">
<path d="M1.99219 1.04271L1.91406 0.9838C1.95052 0.862052 1.91016 0.762887 1.79297 0.686303C1.67578 0.60972 1.55078 0.584192 1.41797 0.60972L1.33984 0.55081C1.36068 0.544919 1.38411 0.54001 1.41016 0.536082C1.4362 0.532155 1.46615 0.530191 1.5 0.530191C1.64583 0.530191 1.76888 0.567992 1.86914 0.643593C1.9694 0.719195 2.01953 0.811978 2.01953 0.921944C2.01953 0.947472 2.01693 0.971036 2.01172 0.992636C2.00651 1.01424 2 1.03093 1.99219 1.04271ZM2.48437 1.40501L2.41797 1.36377C2.52474 1.3029 2.61979 1.23564 2.70313 1.162C2.78646 1.08837 2.85417 1.00835 2.90625 0.921944C2.77604 0.717722 2.58594 0.555719 2.33594 0.435935C2.08594 0.316151 1.8112 0.256259 1.51172 0.256259C1.42578 0.256259 1.34049 0.261659 1.25586 0.27246C1.17122 0.28326 1.09375 0.296514 1.02344 0.312224L0.957031 0.26215C1.03776 0.238586 1.12695 0.220913 1.22461 0.209131C1.32227 0.197349 1.41667 0.191458 1.50781 0.191458C1.82292 0.191458 2.11784 0.257732 2.39258 0.39028C2.66732 0.522828 2.86979 0.700049 3 0.921944C2.94271 1.01424 2.87174 1.10015 2.78711 1.17968C2.70247 1.2592 2.60156 1.33432 2.48437 1.40501ZM2.73047 2L2.13672 1.55228C2.07422 1.57781 1.98698 1.60088 1.875 1.6215C1.76302 1.64212 1.63802 1.65243 1.5 1.65243C1.17708 1.65243 0.880208 1.58616 0.609375 1.45361C0.338542 1.32106 0.135417 1.14384 0 0.921944C0.0625 0.817869 0.147135 0.719195 0.253906 0.62592C0.360677 0.532646 0.47526 0.453608 0.597656 0.388807L0.140625 0.0471281L0.203125 0L2.78906 1.94993L2.73047 2ZM0.65625 0.435935C0.557292 0.485027 0.452474 0.554737 0.341797 0.645066C0.23112 0.735395 0.148437 0.827688 0.09375 0.921944C0.223958 1.12617 0.414714 1.28817 0.666016 1.40795C0.917318 1.52774 1.19792 1.58763 1.50781 1.58763C1.6224 1.58763 1.73633 1.57928 1.84961 1.56259C1.96289 1.5459 2.04036 1.52872 2.08203 1.51105L1.76172 1.26951C1.73568 1.2813 1.69596 1.29161 1.64258 1.30044C1.58919 1.30928 1.54167 1.3137 1.5 1.3137C1.35417 1.3137 1.23112 1.2759 1.13086 1.20029C1.0306 1.12469 0.980469 1.03191 0.980469 0.921944C0.980469 0.892489 0.986328 0.858125 0.998047 0.818851C1.00977 0.779578 1.02344 0.748159 1.03906 0.724595L0.65625 0.435935Z" fill="white"/>
</svg>
