<svg width="35" height="35" viewBox="0 0 35 35" fill="none" xmlns="http://www.w3.org/2000/svg">
<path d="M2.86494 32.1351H4.96589L26.1187 10.9823L24.0177 8.88131L2.86494 30.0341V32.1351ZM32.1828 8.92906L26.0709 2.81719L28.0764 0.811732C28.6176 0.270577 29.286 0 30.0819 0C30.8777 0 31.5462 0.270577 32.0873 0.811732L34.1883 2.91269C34.7294 3.45384 35 4.12233 35 4.91814C35 5.71396 34.7294 6.38245 34.1883 6.9236L32.1828 8.92906ZM30.1774 10.9345L6.11187 35H0V28.8881L24.0655 4.82265L30.1774 10.9345ZM25.0682 9.93179L24.0177 8.88131L26.1187 10.9823L25.0682 9.93179Z"/>
</svg>
