<svg width="35" height="35" viewBox="0 0 35 35" fill="none" xmlns="http://www.w3.org/2000/svg">
<path d="M16.2312 30.0562H18.6375V27.7812C20.4167 27.5771 21.8021 27.0302 22.7937 26.1406C23.7854 25.251 24.2812 24.0625 24.2812 22.575C24.2812 21.0875 23.8583 19.8771 23.0125 18.9438C22.1667 18.0104 20.7375 17.1208 18.725 16.275C17.0333 15.575 15.8083 14.9479 15.05 14.3938C14.2917 13.8396 13.9125 13.0958 13.9125 12.1625C13.9125 11.2583 14.2406 10.5437 14.8969 10.0188C15.5531 9.49375 16.45 9.23125 17.5875 9.23125C18.4625 9.23125 19.2208 9.43542 19.8625 9.84375C20.5042 10.2521 21.0437 10.8646 21.4812 11.6813L23.5813 10.675C23.0854 9.65417 22.4292 8.85208 21.6125 8.26875C20.7958 7.68542 19.8333 7.33542 18.725 7.21875V4.9875H16.3188V7.21875C14.8312 7.42292 13.6573 7.96979 12.7969 8.85938C11.9365 9.74896 11.5062 10.85 11.5062 12.1625C11.5062 13.5917 11.9437 14.7292 12.8187 15.575C13.6937 16.4208 15.0062 17.2083 16.7563 17.9375C18.7104 18.7542 20.0521 19.4906 20.7812 20.1469C21.5104 20.8031 21.875 21.6125 21.875 22.575C21.875 23.5083 21.4885 24.2594 20.7156 24.8281C19.9427 25.3969 18.9729 25.6812 17.8062 25.6812C16.6688 25.6812 15.6552 25.3604 14.7656 24.7188C13.876 24.0771 13.2563 23.2021 12.9062 22.0938L10.675 22.8375C11.2875 24.1792 12.0385 25.2365 12.9281 26.0094C13.8177 26.7823 14.9187 27.3438 16.2312 27.6938V30.0562ZM17.5 35C15.1083 35 12.8479 34.5406 10.7188 33.6219C8.58958 32.7031 6.73021 31.449 5.14062 29.8594C3.55104 28.2698 2.29687 26.4104 1.37812 24.2812C0.459375 22.1521 0 19.8917 0 17.5C0 15.0792 0.459375 12.8042 1.37812 10.675C2.29687 8.54583 3.55104 6.69375 5.14062 5.11875C6.73021 3.54375 8.58958 2.29687 10.7188 1.37812C12.8479 0.459375 15.1083 0 17.5 0C19.9208 0 22.1958 0.459375 24.325 1.37812C26.4542 2.29687 28.3063 3.54375 29.8813 5.11875C31.4563 6.69375 32.7031 8.54583 33.6219 10.675C34.5406 12.8042 35 15.0792 35 17.5C35 19.8917 34.5406 22.1521 33.6219 24.2812C32.7031 26.4104 31.4563 28.2698 29.8813 29.8594C28.3063 31.449 26.4542 32.7031 24.325 33.6219C22.1958 34.5406 19.9208 35 17.5 35ZM17.5 32.375C21.6417 32.375 25.1562 30.924 28.0437 28.0219C30.9312 25.1198 32.375 21.6125 32.375 17.5C32.375 13.3583 30.9312 9.84375 28.0437 6.95625C25.1562 4.06875 21.6417 2.625 17.5 2.625C13.3875 2.625 9.88021 4.06875 6.97813 6.95625C4.07604 9.84375 2.625 13.3583 2.625 17.5C2.625 21.6125 4.07604 25.1198 6.97813 28.0219C9.88021 30.924 13.3875 32.375 17.5 32.375Z"/>
</svg>
