<svg width="214" height="135" viewBox="0 0 214 135" fill="none" xmlns="http://www.w3.org/2000/svg">
<path d="M78.7934 133.916C53.402 131.562 31.0015 121.561 16.4021 106.099C8.09511 97.2851 3.05411 87.7177 0.782113 76.446C-0.265137 71.3233 -0.256262 62.8107 0.782113 57.6409C3.95049 41.9716 13.5 28.2609 28.5254 17.8084C62.8006 -6.044 115.305 -5.92158 149.261 18.0909C153.769 21.2737 156.68 23.8068 160.763 28.0726C165.91 33.4683 169.531 38.8264 173.348 46.7176C173.49 47.0001 174.191 47.3767 174.91 47.5274C177.306 48.0547 180.527 50.0511 183.11 52.6124C185.116 54.5899 186.669 56.7557 190.494 62.9048C194.355 69.101 211.83 97.7182 212.895 99.5922C213.303 100.327 212.486 101.494 211.563 101.494C210.915 101.494 210.445 101.023 209.487 99.4227L199.582 83.113C182.72 55.4092 181.805 54.1285 177.111 51.6331L174.643 50.3147H167.392C160.15 50.3147 160.142 50.3242 159.964 51.134C159.006 55.5598 158.828 56.6522 159.041 56.8593C159.174 56.9912 163.283 59.4772 168.182 62.3775L177.075 67.6697L176.525 68.9032C176.214 69.5812 175.868 70.1462 175.744 70.1462C175.62 70.1462 168.129 65.7392 159.103 60.3623C150.068 54.9948 142.152 50.4372 141.513 50.2488C138.939 49.4955 134.999 52.5088 134.999 55.2302C134.999 57.9799 135.771 58.7897 151.63 72.5663C161.526 81.1732 167.188 86.3335 168.049 87.5577C169.629 89.78 171.218 93.057 172.691 97.0873C175.265 104.187 179.462 108.142 186.341 109.969L188.604 110.572L188.417 111.89C188.365 112.395 188.254 112.892 188.089 113.369C187.796 113.717 183.234 112.173 180.598 110.826C176.472 108.726 173.632 105.732 170.845 100.524C169.631 100.912 168.432 101.348 167.25 101.833C163.78 103.17 163.612 103.283 160.328 106.683C146.341 121.166 126.283 130.422 102.055 133.567C98.1231 134.085 82.9735 134.311 78.7934 133.916ZM102.907 129.462C114.018 127.899 122.636 125.563 131.662 121.646C141.131 117.531 150.06 111.617 156.308 105.327L158.766 102.841L152.571 99.7052C145.95 96.3434 145.294 95.7878 144.451 92.7839C143.918 90.9006 144.522 88.876 146.208 86.9362L147.53 85.4201L144.655 83.1036C142.383 81.2673 141.673 80.4669 141.229 79.2427C140.88 78.2906 140.762 77.261 140.884 76.2478C141.007 75.2346 141.366 74.2701 141.93 73.4421L142.8 72.1426L133.721 70.4476C130.257 69.8339 126.807 69.1369 123.372 68.3571C122.618 68.0463 121.943 67.5508 121.404 66.9109C120.864 66.2711 120.474 65.5051 120.266 64.6752C120.071 63.8088 124.526 40.7568 125.52 37.461C125.867 36.6129 126.386 35.8562 127.039 35.2444C127.693 34.6325 128.465 34.1805 129.301 33.9203C130.801 33.6284 157.568 38.6192 158.899 39.4479C161.011 40.7474 161.677 42.8567 161.011 46.0867L160.727 47.4427H162.21C163.026 47.4427 164.961 47.3297 166.496 47.2072L169.301 46.9718L167.907 44.241C163.701 35.9355 156.104 27.5923 146.714 20.963C142.329 17.8743 132.984 12.9871 127.357 10.8495C118.616 7.6355 109.554 5.50572 100.351 4.50266C95.2476 3.93766 81.873 3.93766 76.9207 4.51208C65.0371 5.88691 54.254 8.74016 44.8199 13.0059C22.9874 22.884 8.29924 39.2407 4.54511 57.8952C3.56886 62.7636 3.48011 71.2951 4.38536 75.7303C6.37336 85.5237 10.7132 94.0081 17.7777 101.909C32.1552 117.983 54.1386 127.861 80.4885 130.102C84.0119 130.394 99.3124 129.961 102.907 129.462ZM98.0876 111.909C96.7297 111.495 95.3541 109.772 95.0701 108.142C94.8749 107.069 95.1056 106.334 96.5434 103.378C102.365 91.4185 104.895 80.4292 104.895 67.0764C104.895 54.1756 102.658 44.1468 97.0936 32.1123C95.8955 29.5322 94.9192 27.1309 94.9192 26.7919C94.9192 25.5112 95.931 23.6562 97.0226 22.9311C98.5225 21.9235 101.034 22.1118 102.241 23.3077C102.703 23.7786 103.901 25.8597 104.904 27.9596C108.888 36.2462 111.613 45.3522 112.962 54.8253C113.796 60.6919 113.965 71.8036 113.299 77.1711C112.181 86.6827 109.602 95.936 105.667 104.564C103.271 109.79 101.78 111.947 100.519 111.947C100.216 111.955 99.9152 112.002 99.623 112.088C99.105 112.143 98.5821 112.082 98.0876 111.909ZM81.8819 102.916C79.8051 102.266 78.2964 99.5545 78.8999 97.5205C79.0507 97.0308 80.027 94.7614 81.0831 92.4826C85.481 83.16 87.3522 72.7246 86.488 62.3398C85.7425 53.9967 84.3314 48.7327 80.7814 41.0299C78.394 35.8602 78.2875 35.0597 79.672 32.9881C80.9855 31.0106 84.2781 30.681 85.9999 32.3666C87.198 33.5342 90.9255 41.7832 92.3544 46.4539C97.1085 61.9398 96.3764 78.7338 90.2954 93.6879C87.1714 101.466 84.9792 103.867 81.8819 102.916ZM65.1791 93.7915C64.5143 93.4492 63.9282 92.9565 63.462 92.348C62.9959 91.7396 62.6611 91.0302 62.4811 90.2697C62.2947 89.3845 62.6054 88.4052 64.1407 85.1187C69.7497 73.0654 69.8119 61.4452 64.3182 49.665C61.9131 44.4858 61.8599 43.4594 63.9011 41.416C64.904 40.4084 65.33 40.2295 66.7411 40.2295C69.1107 40.2295 70.3444 41.5007 72.4566 46.1149C75.7137 53.2151 77.0539 59.3736 77.0361 67.2647C77.0361 75.3631 75.7847 80.9377 72.3057 88.424C70.3089 92.7086 69.3237 93.8386 67.3357 94.1305C66.6017 94.2 65.8626 94.0839 65.1791 93.7915ZM49.5857 85.2977C48.38 84.6206 47.4697 83.4724 47.0475 82.096C46.6659 80.6647 46.9765 79.5252 48.5119 76.8509C50.4821 73.4138 50.9436 71.5776 50.9436 67.0764C50.9436 62.5847 50.4821 60.739 48.5119 57.3019C47.9278 56.319 47.4288 55.2821 47.0209 54.2038C46.3907 51.9438 48.1657 49.1659 50.5531 48.6857C52.5766 48.2807 53.97 49.2507 55.8337 52.3299C58.4742 56.7781 59.8753 61.9278 59.8753 67.1847C59.8753 72.4416 58.4742 77.5913 55.8337 82.0395C53.9256 85.1658 51.8045 86.277 49.5857 85.2977ZM165.759 99.1684C167.561 98.481 169.123 97.8407 169.221 97.7277C169.327 97.6241 168.981 96.3999 168.449 95.0062C167.366 92.1624 167.543 92.2283 163.709 93.0099C159.556 93.8574 157.151 93.1041 152.616 89.5634C151.373 88.5935 150.104 87.8025 149.776 87.8025C149.456 87.8025 148.755 88.3016 148.205 88.9231C147.051 90.2414 146.874 92.3131 147.814 93.5372C148.64 94.6013 160.035 100.355 161.393 100.383C161.988 100.402 163.958 99.8558 165.759 99.1684ZM163.967 89.9118C165.653 89.554 165.839 89.4316 165.546 88.8571C165.227 88.2168 149.465 74.3367 148.098 73.4892C146.971 72.7923 146.057 72.9524 145.125 74.0165C142.383 77.124 142.702 77.7832 149.793 83.5556C158.349 90.5051 159.254 90.9194 163.967 89.9118ZM142.809 68.9032C142.809 68.8091 141.025 67.18 138.833 65.2778C133.437 60.5601 132.283 58.7992 132.283 55.315C132.283 52.3958 134.111 49.5897 137.058 47.97C138.799 47.141 140.751 46.9521 142.605 47.4332C143.652 47.7911 148.356 50.4937 154.879 54.4769L156.254 55.315L157.39 49.6085C158.544 43.7702 158.571 42.2447 157.497 41.8868C152.846 40.9423 148.186 40.0445 143.519 39.1937C130.446 36.7453 129.017 36.6041 128.413 37.6493C128.085 38.2143 123.115 62.66 123.115 63.7052C123.115 64.2232 123.364 64.8729 123.665 65.1366C123.967 65.4097 128.209 66.3796 133.091 67.3024C142.516 69.101 142.809 69.1481 142.809 68.9032Z"/>
</svg>
