<svg width="33" height="35" viewBox="0 0 33 35" fill="none" xmlns="http://www.w3.org/2000/svg">
<path d="M5.35608 34.9972C4.07285 34.9972 2.98648 34.5525 2.09697 33.663C1.20745 32.7735 0.762695 31.6871 0.762695 30.4039V24.9355H6.31851V0L8.9433 2.62479L11.5681 0L14.1491 2.62479L16.7739 0L19.3987 2.62479L22.0235 0L24.6483 2.62479L27.2731 0L29.8979 2.62479L32.5227 0V30.4039C32.5227 31.6871 32.0779 32.7735 31.1884 33.663C30.2989 34.5525 29.2125 34.9972 27.9293 34.9972H5.35608ZM27.9293 32.3724C28.5126 32.3724 28.9865 32.1902 29.3511 31.8256C29.7156 31.4611 29.8979 30.9871 29.8979 30.4039V4.37466H8.9433V24.9355H25.9607V30.4039C25.9607 30.9871 26.143 31.4611 26.5075 31.8256C26.8721 32.1902 27.346 32.3724 27.9293 32.3724ZM11.2619 11.2866V8.66182H21.761V11.2866H11.2619ZM11.2619 17.1486V14.5239H21.761V17.1486H11.2619ZM25.8295 11.2866C25.4795 11.2866 25.1733 11.1554 24.9108 10.8929C24.6483 10.6304 24.5171 10.3242 24.5171 9.97421C24.5171 9.62424 24.6483 9.31802 24.9108 9.05554C25.1733 8.79306 25.4795 8.66182 25.8295 8.66182C26.1794 8.66182 26.4857 8.79306 26.7481 9.05554C27.0106 9.31802 27.1419 9.62424 27.1419 9.97421C27.1419 10.3242 27.0106 10.6304 26.7481 10.8929C26.4857 11.1554 26.1794 11.2866 25.8295 11.2866ZM25.8295 16.9299C25.4795 16.9299 25.1733 16.7987 24.9108 16.5362C24.6483 16.2737 24.5171 15.9675 24.5171 15.6175C24.5171 15.2675 24.6483 14.9613 24.9108 14.6988C25.1733 14.4364 25.4795 14.3051 25.8295 14.3051C26.1794 14.3051 26.4857 14.4364 26.7481 14.6988C27.0106 14.9613 27.1419 15.2675 27.1419 15.6175C27.1419 15.9675 27.0106 16.2737 26.7481 16.5362C26.4857 16.7987 26.1794 16.9299 25.8295 16.9299ZM5.31234 32.3724H23.3359V27.5603H3.38749V30.4039C3.38749 30.9871 3.56977 31.4611 3.93432 31.8256C4.29888 32.1902 4.75821 32.3724 5.31234 32.3724ZM3.38749 32.3724V27.5603V32.3724Z"/>
</svg>

