<svg width="35" height="35" viewBox="0 0 35 35" fill="none" xmlns="http://www.w3.org/2000/svg">
<path d="M12.3743 2.12308L2.12308 12.3743C-0.707694 15.2051 -0.707694 19.7947 2.12308 22.6255L12.3743 32.8767C15.2052 35.7075 19.7947 35.7075 22.6255 32.8767L32.877 22.6255C35.7077 19.7946 35.7077 15.2047 32.877 12.3743L22.6255 2.12308C19.7947 -0.707694 15.2051 -0.707694 12.3743 2.12308ZM20.0628 4.6859L30.3143 14.9371C31.7295 16.3524 31.7295 18.6475 30.3142 20.0629L20.063 30.3141C18.6475 31.7295 16.353 31.7295 14.9372 30.3141L4.68601 20.0629C3.27057 18.6474 3.27057 16.3525 4.68601 14.9371L14.9372 4.6859C16.3526 3.27046 18.6472 3.27046 20.063 4.6859H20.0628Z"/>
<path d="M0.283273 17.6822C0.283273 23.7715 8.55241 29.4104 13.198 24.5622L14.2008 23.4731C15.7212 21.8201 16.4755 21.304 17.4945 21.3065C18.3942 21.3087 19.1018 21.7198 20.3063 22.9545L21.6137 24.3582C26.163 29.6016 34.715 23.8746 34.715 17.6823C34.715 11.5929 26.4462 5.95405 21.8003 10.8023L20.7222 11.9693L20.1928 12.5186C19.0317 13.6846 18.3583 14.058 17.499 14.058C16.5735 14.058 15.7976 13.5705 14.4748 12.183L13.3859 11.0078C8.83479 5.76333 0.283203 11.4898 0.283203 17.6823L0.283273 17.6822ZM31.0908 17.6822C31.0908 20.894 26.5274 24.0344 24.4659 22.0989L24.0174 21.6203L23.5222 21.081C21.3214 18.6896 19.8706 17.6877 17.5036 17.6821C15.2744 17.6765 13.8635 18.557 11.8871 20.6406L10.7365 21.8837C8.72108 24.2039 3.90792 20.9808 3.90792 17.6823C3.90792 14.4704 8.47125 11.3304 10.5328 13.2656L11.5189 14.329C13.6717 16.6562 15.1747 17.6823 17.4994 17.6823C19.7946 17.6823 21.1629 16.7895 23.3157 14.5022L24.3043 13.4337C26.2776 11.1607 31.0909 14.3837 31.0909 17.6823L31.0908 17.6822Z"/>
</svg>
