<svg width="22" height="19" viewBox="0 0 22 19" fill="none" xmlns="http://www.w3.org/2000/svg">
<path d="M20.8215 0H1.17857C0.518617 0 0 0.69134 0 1.57143V7.4643C0 8.34439 0.518617 9.03573 1.17857 9.03573H5.50001V16.8929C5.50001 17.2054 5.62418 17.5053 5.84516 17.7263C6.06615 17.9472 6.36607 18.0714 6.67856 18.0714H15.3214C15.634 18.0714 15.9339 17.9473 16.1548 17.7263C16.3758 17.5053 16.5 17.2054 16.5 16.8929V9.03573H20.8214C21.4814 9.03573 22 8.34439 22 7.4643V1.57143C22 0.69134 21.4814 0 20.8214 0H20.8215ZM15.3215 5.10715H6.67858C6.36605 5.10715 6.06613 5.23132 5.84519 5.45231C5.62424 5.67329 5.50003 5.97321 5.50003 6.2857V6.67856H4.71432V4.32141H17.2858V6.67856H16.5001V6.2857C16.5001 5.97317 16.3759 5.67325 16.1549 5.45231C15.9339 5.23136 15.634 5.10715 15.3215 5.10715H15.3215ZM15.7143 16.8929C15.7143 16.9971 15.6729 17.097 15.5993 17.1707C15.5256 17.2444 15.4256 17.2857 15.3215 17.2857H6.67858C6.46164 17.2857 6.28573 17.1098 6.28573 16.8929V6.28573C6.28573 6.06878 6.46164 5.89287 6.67858 5.89287H15.3215C15.4256 5.89287 15.5256 5.93426 15.5993 6.00792C15.6729 6.08158 15.7143 6.18155 15.7143 6.28573V16.8929ZM21.2143 7.4643C21.2143 7.94363 20.9825 8.25002 20.8215 8.25002H16.5V7.4643H17.6786C17.7828 7.4643 17.8828 7.42291 17.9564 7.34925C18.0301 7.27559 18.0715 7.17562 18.0715 7.07144V3.92858C18.0715 3.8244 18.0301 3.72443 17.9564 3.65077C17.8828 3.57711 17.7828 3.53572 17.6786 3.53572H4.32144C4.10449 3.53572 3.92858 3.71163 3.92858 3.92858V7.07144C3.92858 7.17562 3.96997 7.27559 4.04363 7.34925C4.11729 7.42291 4.21726 7.4643 4.32144 7.4643H5.50001V8.25002H1.17857C1.01757 8.25002 0.785716 7.94362 0.785716 7.4643V1.57143C0.785716 1.0921 1.01757 0.785716 1.17857 0.785716H20.8215C20.9825 0.785716 21.2143 1.09211 21.2143 1.57143V7.4643Z" fill="#F1F1F1"/>
<path d="M13.7503 7.07227H8.25028C8.03333 7.07227 7.85742 7.24818 7.85742 7.46512C7.85742 7.68207 8.03333 7.85798 8.25028 7.85798H13.7503C13.9672 7.85798 14.1431 7.68207 14.1431 7.46512C14.1431 7.24818 13.9672 7.07227 13.7503 7.07227Z" fill="#F1F1F1"/>
<path d="M13.7503 9.82129H8.25028C8.03333 9.82129 7.85742 9.9972 7.85742 10.2141C7.85742 10.4311 8.03333 10.607 8.25028 10.607H13.7503C13.9672 10.607 14.1431 10.4311 14.1431 10.2141C14.1431 9.9972 13.9672 9.82129 13.7503 9.82129Z" fill="#F1F1F1"/>
<path d="M13.7503 12.5713H8.25028C8.03333 12.5713 7.85742 12.7472 7.85742 12.9641C7.85742 13.1811 8.03333 13.357 8.25028 13.357H13.7503C13.9672 13.357 14.1431 13.1811 14.1431 12.9641C14.1431 12.7472 13.9672 12.5713 13.7503 12.5713Z" fill="#F1F1F1"/>
<path d="M13.7503 15.3223H8.25028C8.03333 15.3223 7.85742 15.4982 7.85742 15.7151C7.85742 15.9321 8.03333 16.108 8.25028 16.108H13.7503C13.9672 16.108 14.1431 15.9321 14.1431 15.7151C14.1431 15.4982 13.9672 15.3223 13.7503 15.3223Z" fill="#F1F1F1"/>
</svg>
