<svg width="35" height="32" viewBox="0 0 35 32" fill="none" xmlns="http://www.w3.org/2000/svg">
<path d="M33.1758 13.9752V28.7335C33.1758 29.4301 32.9146 30.0396 32.3922 30.562C31.8697 31.0844 31.2602 31.3456 30.5637 31.3456H4.3992C3.70264 31.3456 3.09316 31.0844 2.57074 30.562C2.04832 30.0396 1.78711 29.4301 1.78711 28.7335V13.9752C0.974457 13.2786 0.437526 12.4225 0.176316 11.4066C-0.0848931 10.3908 -0.0558699 9.37501 0.263386 8.35919L2.13539 2.48198C2.36757 1.69835 2.7739 1.08886 3.35437 0.653512C3.93483 0.218163 4.60237 0.000488281 5.35697 0.000488281H29.4318C30.2444 0.000488281 30.9555 0.225419 31.565 0.675279C32.1745 1.12514 32.5953 1.72737 32.8275 2.48198L34.743 8.35919C35.0623 9.37501 35.0841 10.3908 34.8083 11.4066C34.5326 12.4225 33.9884 13.2786 33.1758 13.9752ZM21.4214 12.6256C22.263 12.6256 22.9741 12.3499 23.5546 11.7984C24.135 11.247 24.3672 10.5795 24.2511 9.79584L23.1628 2.61258H18.8093V9.79584C18.8093 10.5504 19.056 11.2107 19.5494 11.7767C20.0428 12.3426 20.6668 12.6256 21.4214 12.6256ZM13.2803 12.6256C14.093 12.6256 14.7823 12.3499 15.3482 11.7984C15.9142 11.247 16.1972 10.5795 16.1972 9.79584V2.61258H11.8437L10.7553 9.79584C10.6392 10.5504 10.8424 11.2107 11.3648 11.7767C11.8872 12.3426 12.5257 12.6256 13.2803 12.6256ZM5.35697 12.6256C6.05353 12.6256 6.65576 12.3862 7.16367 11.9073C7.67158 11.4284 7.96907 10.8407 8.05614 10.1441L9.18804 2.61258H4.83455L2.83195 8.96868C2.54171 9.8684 2.65781 10.7028 3.18023 11.4719C3.70265 12.2411 4.42823 12.6256 5.35697 12.6256ZM29.6059 12.6256C30.5347 12.6256 31.2675 12.2483 31.8044 11.4937C32.3414 10.7391 32.4647 9.89742 32.1745 8.96868L30.1719 2.61258H25.8184L26.9503 10.1441C27.0374 10.8407 27.3349 11.4284 27.8428 11.9073C28.3507 12.3862 28.9384 12.6256 29.6059 12.6256ZM4.3992 28.7335H30.5637V15.1942C30.5927 15.2232 30.4984 15.2377 30.2807 15.2377H29.6059C28.8803 15.2377 28.191 15.0853 27.538 14.7806C26.885 14.4758 26.2392 14.0042 25.6007 13.3657C25.1363 13.9462 24.5559 14.4033 23.8593 14.7371C23.1628 15.0708 22.3936 15.2377 21.552 15.2377C20.6813 15.2377 19.9339 15.1144 19.3099 14.8677C18.6859 14.621 18.0837 14.2074 17.5032 13.6269C17.0679 14.1493 16.5164 14.5484 15.8489 14.8241C15.1814 15.0998 14.4267 15.2377 13.5851 15.2377C12.6853 15.2377 11.8872 15.0781 11.1906 14.7588C10.4941 14.4396 9.89911 13.9752 9.40572 13.3657C8.70916 13.9752 8.02711 14.4396 7.35958 14.7588C6.69204 15.0781 6.02451 15.2377 5.35697 15.2377H4.76925C4.5806 15.2377 4.45725 15.2232 4.3992 15.1942V28.7335ZM30.5637 28.7335H4.3992H30.5637Z"/>
</svg>
