<svg width="328" height="329" viewBox="0 0 328 329" fill="none" xmlns="http://www.w3.org/2000/svg">
<path d="M41.001 31.4043H82.001V73.8091H41.001V31.4043Z" fill="#F1F1F1"/>
<path d="M123 -11V116.214H0V-11H123ZM102.5 10.2024H20.5V95.0121H102.5V10.2024ZM82 243.429H41V285.834H82V243.429Z" fill="#F1F1F1"/>
<path d="M123 201.024V328.238H0V201.024H123ZM20.5 222.226V307.036H102.5V222.226H20.5ZM246 31.4043H287V73.8091H246V31.4043Z" fill="#F1F1F1"/>
<path d="M205 -11V116.214H328V-11H205ZM307.5 10.2024V95.0121H225.5V10.2024H307.5ZM164 10.2024V-11H184.5V31.4048H164V73.8096H143.5V10.2024H164ZM164 116.214V73.8096H184.5V116.214H164ZM123 158.619V137.417H143.5V116.214H164V158.619H184.5V137.417H287V158.619H205V179.822H143.5V158.619H123ZM123 158.619V179.822H41V158.619H20.5V179.822H0V137.417H61.5V158.619H123ZM328 179.822H307.5V137.417H328V179.822ZM307.5 179.822H287V222.227H328V201.024H307.5V179.822ZM225.5 179.822H266.5V201.024H246V222.227H225.5V179.822ZM266.5 243.429V222.227H246V243.429H225.5V264.631H184.5V285.834H246V243.429H266.5ZM266.5 243.429H328V264.631H287V285.834H266.5V243.429ZM184.5 222.227V243.429H205V201.024H143.5V222.227H184.5Z" fill="#F1F1F1"/>
<path d="M143.501 243.429H164.001V307.036H246.001V328.238H143.501V243.429ZM328.001 285.834V328.238H266.501V307.036H307.501V285.834H328.001Z" fill="#F1F1F1"/>
</svg>
