<svg width="13" height="15" viewBox="0 0 13 15" fill="none" xmlns="http://www.w3.org/2000/svg">
<path d="M11.3935 4.32587C11.2863 4.11156 11.3578 3.82588 11.572 3.68302C11.7863 3.57586 12.072 3.64733 12.1791 3.86155C12.7148 4.82589 13.0006 5.93304 13.0006 7.00459C13.0006 10.6118 10.1077 13.5049 6.50027 13.5049C5.46447 13.5049 4.42878 13.2549 3.50025 12.7906L3.64309 13.755C3.67878 14.005 3.50025 14.2193 3.25023 14.255C3.00021 14.2906 2.75023 14.1121 2.71453 13.8978L2.46453 11.9335C2.42884 11.6835 2.60737 11.4692 2.82169 11.4335L4.78602 11.1478C5.03602 11.1121 5.25033 11.2906 5.28601 11.5406C5.32169 11.7906 5.14317 12.005 4.89315 12.0406L4.25029 12.1478C4.96461 12.4335 5.71463 12.6121 6.50043 12.6121C9.60784 12.6121 12.1078 10.112 12.1078 7.00471C12.1078 6.07608 11.8578 5.14744 11.3935 4.32609L11.3935 4.32587Z"/>
<path d="M1.89297 10.1836C2.03582 10.3979 1.96445 10.6836 1.78582 10.7908C1.5715 10.9336 1.28582 10.8979 1.14296 10.6836C0.392937 9.61213 0 8.32631 0 7.00489C0 3.43331 2.92877 0.504539 6.50035 0.504539C7.60753 0.504539 8.7147 0.790239 9.67902 1.36172L9.57186 0.504539C9.53618 0.290221 9.71471 0.0402206 9.96472 0.00454296C10.2147 -0.0311347 10.429 0.147388 10.4647 0.397404L10.7504 2.32606C10.7861 2.57606 10.6076 2.82605 10.3576 2.86176L8.42891 3.11176C8.1789 3.14744 7.92891 3.0046 7.89321 2.7546C7.85752 2.5046 8.03605 2.2546 8.28607 2.2189L9.17892 2.11174C8.35745 1.64743 7.42881 1.43311 6.5003 1.43311C3.39289 1.43311 0.89291 3.93324 0.89291 7.00487C0.89291 8.14783 1.25007 9.255 1.89293 10.1835L1.89297 10.1836Z" />
</svg>
