<svg width="21" height="22" viewBox="0 0 21 22" fill="none" xmlns="http://www.w3.org/2000/svg">
<path d="M5.71042 19.5948H7.90619V20.2768H5.71042V19.5948ZM21 6.35147V14.0623C21 14.5339 20.6171 14.9169 20.1454 14.9169H13.6214V20.021C13.6214 20.9972 12.8278 21.7908 11.849 21.7908H1.76984C0.793621 21.7908 0 20.9973 0 20.021V1.76984C0 0.793622 0.793578 0 1.76984 0H11.849C12.8253 0 13.6214 0.793579 13.6214 1.76984V5.49715H20.1454C20.6145 5.49715 21 5.88008 21 6.35173V6.35147ZM0.681999 1.76954V2.46939H12.9365V1.76954C12.9365 1.16867 12.4472 0.68174 11.8461 0.68174H1.7695C1.17116 0.67922 0.681697 1.16867 0.681697 1.76954H0.681999ZM12.939 20.0207V18.9125H0.681999V20.0207C0.681999 20.6216 1.16875 21.1085 1.7698 21.1085H11.849C12.4501 21.111 12.9393 20.6216 12.9393 20.0207H12.939ZM12.939 14.9166H11.9399C11.8892 14.9166 11.8563 14.9292 11.8208 14.9648L9.69597 17.0871C9.69345 17.0897 9.69093 17.0897 9.69093 17.0922C9.65548 17.1276 9.61734 17.158 9.57684 17.1834C9.56424 17.1935 9.54895 17.2012 9.53366 17.2088C9.50325 17.2266 9.47283 17.2442 9.4399 17.2595C9.42461 17.2671 9.40949 17.2748 9.3942 17.2799C9.3537 17.2951 9.31052 17.3103 9.26734 17.3178C9.2623 17.3178 9.25726 17.3204 9.25205 17.3229C9.20634 17.333 9.15829 17.3355 9.11006 17.3382C9.10502 17.3382 9.09998 17.3407 9.09225 17.3407C9.08217 17.3407 9.07192 17.3382 9.06184 17.3382C9.02639 17.3382 8.98825 17.3331 8.95279 17.3281C8.9375 17.3256 8.92238 17.323 8.90709 17.3205C8.85634 17.3104 8.80812 17.2951 8.76006 17.2748C8.43543 17.1404 8.23515 16.8386 8.23515 16.4863L8.23549 6.35114C8.23549 5.87948 8.61842 5.49657 9.0874 5.49657H12.9339V3.1511L0.681976 3.15127V18.2331H12.9364V14.9166L12.939 14.9166ZM20.3178 6.35147C20.3178 6.25519 20.2392 6.17907 20.1454 6.17907H9.09018C8.99894 6.17907 8.92031 6.25771 8.92031 6.35147V16.4836C8.92031 16.5597 8.95828 16.6155 9.02432 16.6434C9.0927 16.6713 9.16126 16.6587 9.21704 16.6029L11.3369 14.4831C11.4966 14.3208 11.7045 14.232 11.9404 14.232H20.1455C20.2417 14.232 20.3178 14.1534 20.3178 14.0597L20.3178 6.35147ZM16.9327 8.39518H12.3052C12.1175 8.39518 11.9655 8.54725 11.9655 8.73493C11.9655 8.92262 12.1175 9.07468 12.3052 9.07468H16.9327C17.1204 9.07468 17.2725 8.92261 17.2725 8.73493C17.2727 8.54724 17.1204 8.39518 16.9329 8.39518H16.9327ZM16.9327 11.3365H12.3052C12.1175 11.3365 11.9655 11.4886 11.9655 11.6762C11.9655 11.8639 12.1175 12.016 12.3052 12.016H16.9327C17.1204 12.016 17.2725 11.8639 17.2725 11.6762C17.2727 11.4885 17.1204 11.3365 16.9329 11.3365H16.9327Z" fill="#F1F1F1"/>
</svg>
