<svg width="65" height="65" viewBox="0 0 65 65" fill="none" xmlns="http://www.w3.org/2000/svg">
<path d="M32.5 0C14.5277 0 0 14.5277 0 32.5C0 50.4724 14.5277 65 32.5 65C50.4724 65 65 50.4724 65 32.5C65 14.5277 50.4724 0 32.5 0ZM48.2258 25.7604L28.9804 44.9309C28.3813 45.53 27.6328 45.8293 26.8836 45.8293C26.1345 45.8293 25.3108 45.53 24.7869 44.9309L15.2764 35.4951C14.0781 34.2968 14.0781 32.4247 15.2764 31.2264C16.4746 30.0281 18.3468 30.0281 19.5451 31.2264L26.8836 38.565L43.9574 21.4913C45.1557 20.293 47.0278 20.293 48.2261 21.4913C49.3491 22.6901 49.3491 24.6368 48.2261 25.7605L48.2258 25.7604Z" fill="#68B41C"/>
</svg>
