<svg width="23" height="31" viewBox="0 0 23 31" fill="none" xmlns="http://www.w3.org/2000/svg">
<path d="M21.635 9.22079H1.36521C0.612612 9.22079 0 8.60866 0 7.8563V4.96019C0 4.20783 0.612374 3.59569 1.36521 3.59569L21.635 3.59546C22.3876 3.59546 23 4.20759 23 4.95995V7.85607C22.9998 8.60866 22.3876 9.2208 21.635 9.2208V9.22079ZM1.36521 4.8774C1.3208 4.8774 1.28198 4.91622 1.28198 4.95993V7.85604C1.28198 7.89975 1.32081 7.93858 1.36521 7.93858L21.635 7.93881C21.6792 7.93881 21.718 7.89998 21.718 7.85628V4.96016C21.718 4.91645 21.6792 4.87763 21.635 4.87763L1.36521 4.8774Z" />
<path d="M15.5235 4.87717H7.46604L7.3656 4.35755C7.35282 4.29176 7.34863 4.21364 7.34863 4.14901C7.34863 1.86152 9.20992 0 11.4974 0C13.7851 0 15.6464 1.86152 15.6464 4.14925C15.6464 4.19249 15.6464 4.27387 15.6276 4.36454L15.5235 4.87717ZM8.68495 3.59523H14.3112C14.0527 2.27841 12.8893 1.28197 11.4978 1.28197C10.1063 1.28197 8.94344 2.27841 8.6849 3.59523H8.68495Z" />
<path d="M17.0587 30.7666H5.94141C4.46651 30.7666 3.23361 29.6137 3.13529 28.142L1.77734 7.93945H21.2222L19.8647 28.1426C19.7659 29.6143 18.533 30.7665 17.0584 30.7665L17.0587 30.7666ZM3.14827 9.22134L4.4142 28.0562C4.4679 28.8576 5.13864 29.4846 5.94141 29.4846H17.0587C17.8614 29.4846 18.5324 28.8574 18.5863 28.0562L19.852 9.22134H3.14827Z" />
<path d="M11.5033 27.3597C11.1492 27.3597 10.8623 27.0731 10.8623 26.7187V11.9882C10.8623 11.6339 11.1492 11.3472 11.5033 11.3472C11.8574 11.3472 12.1443 11.6338 12.1443 11.9882V26.7187C12.1443 27.073 11.8574 27.3597 11.5033 27.3597Z" />
<path d="M7.65858 25.286C7.3045 25.286 7.01758 24.9993 7.01758 24.645V14.0592C7.01758 13.7049 7.30447 13.4182 7.65858 13.4182C8.01266 13.4182 8.29958 13.7049 8.29958 14.0592V24.645C8.29958 24.9993 8.01269 25.286 7.65858 25.286Z" />
<path d="M15.35 25.286C14.9959 25.286 14.709 24.9993 14.709 24.645V14.0592C14.709 13.7049 14.9959 13.4182 15.35 13.4182C15.7041 13.4182 15.991 13.7049 15.991 14.0592V24.645C15.9908 24.9993 15.7039 25.286 15.35 25.286Z" />
</svg>
